<svg xmlns="http://www.w3.org/2000/svg" viewBox="0 0 1600 900" role="img" aria-label="Photographer looking over a landscape">
  <defs>
    <linearGradient id="hsky" x1="0" x2="1" y1="0" y2="1">
      <stop offset="0" stop-color="#173234"/><stop offset=".45" stop-color="#47716a"/><stop offset="1" stop-color="#d1a55a"/>
    </linearGradient>
    <radialGradient id="sun" cx="76%" cy="27%" r="36%">
      <stop offset="0" stop-color="#ffe7a2"/><stop offset=".35" stop-color="#efb96e" stop-opacity=".55"/><stop offset="1" stop-color="#efb96e" stop-opacity="0"/>
    </radialGradient>
  </defs>
  <rect width="1600" height="900" fill="url(#hsky)"/>
  <rect width="1600" height="900" fill="url(#sun)"/>
  <path d="M0 610 C210 520 430 570 600 480 C780 385 980 420 1165 508 C1320 582 1450 540 1600 490 L1600 900 L0 900Z" fill="#1d3b38"/>
  <path d="M0 700 C220 650 415 690 620 645 C810 602 980 620 1160 700 C1320 772 1450 740 1600 695 L1600 900 L0 900Z" fill="#102523"/>
  <circle cx="1000" cy="260" r="100" fill="#ffe5a3" opacity=".8"/>
  <g transform="translate(1020 490)">
    <circle cx="0" cy="-80" r="58" fill="#2c201c"/>
    <path d="M-62 40 C-35 -35 35 -35 65 40 L120 220 L-125 220Z" fill="#1c2627"/>
    <rect x="-22" y="-42" width="175" height="82" rx="16" fill="#161a1a"/>
    <circle cx="64" cy="-2" r="30" fill="#384441"/>
    <circle cx="64" cy="-2" r="16" fill="#7daaa4"/>
    <rect x="126" y="-22" width="62" height="42" rx="9" fill="#111"/>
  </g>
</svg>
