<svg xmlns="http://www.w3.org/2000/svg" viewBox="0 0 1200 900" role="img" aria-label="Blue mountain lake at dusk">
  <defs>
    <linearGradient id="sky" x1="0" x2="0" y1="0" y2="1">
      <stop offset="0" stop-color="#10253c"/><stop offset=".55" stop-color="#456b87"/><stop offset="1" stop-color="#d3a76f"/>
    </linearGradient>
    <linearGradient id="water" x1="0" x2="1">
      <stop offset="0" stop-color="#163c57"/><stop offset=".5" stop-color="#2b6b84"/><stop offset="1" stop-color="#102d42"/>
    </linearGradient>
  </defs>
  <rect width="1200" height="900" fill="url(#sky)"/>
  <circle cx="950" cy="170" r="58" fill="#f5d38b" opacity=".85"/>
  <path d="M0 500 185 280 350 505 545 230 775 505 960 310 1200 512 1200 900 0 900Z" fill="#17293a"/>
  <path d="M132 344 185 280 238 352 202 338 182 370 160 338Z" fill="#e6eef0"/>
  <path d="M470 320 545 230 642 350 580 330 535 380 505 330Z" fill="#eef5f6"/>
  <path d="M896 380 960 310 1044 382 988 368 953 404 928 368Z" fill="#eaf1f3"/>
  <rect y="545" width="1200" height="355" fill="url(#water)"/>
  <path d="M0 617 C250 572 410 650 620 608 S980 558 1200 620 L1200 900 L0 900Z" fill="#1c5871" opacity=".7"/>
  <g stroke="#e8c88e" stroke-width="5" opacity=".35">
    <path d="M90 660 H310"/><path d="M420 702 H650"/><path d="M760 646 H1090"/><path d="M155 765 H525"/><path d="M682 812 H1060"/>
  </g>
</svg>
