<svg xmlns="http://www.w3.org/2000/svg" viewBox="0 0 1200 900" role="img" aria-label="Rainy street with car lights">
  <defs>
    <linearGradient id="sky" x1="0" x2="1" y1="0" y2="1">
      <stop offset="0" stop-color="#101817"/>
      <stop offset="0.55" stop-color="#273331"/>
      <stop offset="1" stop-color="#6f5b36"/>
    </linearGradient>
    <radialGradient id="lamp" cx="50%" cy="50%" r="50%">
      <stop offset="0" stop-color="#ffe7a8"/>
      <stop offset="1" stop-color="#ffe7a8" stop-opacity="0"/>
    </radialGradient>
    <filter id="blur"><feGaussianBlur stdDeviation="16"/></filter>
  </defs>
  <rect width="1200" height="900" fill="url(#sky)"/>
  <rect y="580" width="1200" height="320" fill="#121716"/>
  <path d="M0 620 C260 590 460 680 690 620 S990 570 1200 625 L1200 900 L0 900Z" fill="#1d2421"/>
  <g opacity=".8">
    <rect x="84" y="160" width="142" height="390" fill="#1c2422"/>
    <rect x="268" y="110" width="175" height="460" fill="#202b28"/>
    <rect x="492" y="190" width="130" height="360" fill="#19211f"/>
    <rect x="830" y="130" width="210" height="440" fill="#22302d"/>
  </g>
  <g fill="#ffd37b" opacity=".74">
    <circle cx="185" cy="262" r="10"/><circle cx="185" cy="330" r="10"/><circle cx="355" cy="222" r="10"/><circle cx="355" cy="300" r="10"/>
    <circle cx="908" cy="252" r="10"/><circle cx="980" cy="336" r="10"/>
  </g>
  <g filter="url(#blur)">
    <circle cx="808" cy="596" r="54" fill="url(#lamp)"/>
    <circle cx="905" cy="610" r="68" fill="url(#lamp)"/>
    <circle cx="335" cy="634" r="48" fill="#e94b31" opacity=".7"/>
  </g>
  <g opacity=".55" stroke="#d8f7ff" stroke-width="3">
    <path d="M120 20 45 640"/><path d="M330 10 238 640"/><path d="M520 0 430 650"/><path d="M740 20 665 650"/><path d="M980 0 884 660"/>
  </g>
  <path d="M185 735 C335 710 460 722 610 746 C472 772 330 772 185 735Z" fill="#e6f9ff" opacity=".2"/>
  <path d="M670 766 C860 735 1002 742 1160 785 C994 820 828 812 670 766Z" fill="#ffe0a0" opacity=".22"/>
</svg>
