<svg xmlns="http://www.w3.org/2000/svg" viewBox="0 0 1200 900" role="img" aria-label="Bird taking flight over reeds">
  <defs>
    <linearGradient id="bg" x1="0" x2="0" y1="0" y2="1">
      <stop offset="0" stop-color="#c7d8bd"/><stop offset=".56" stop-color="#789068"/><stop offset="1" stop-color="#26331f"/>
    </linearGradient>
  </defs>
  <rect width="1200" height="900" fill="url(#bg)"/>
  <circle cx="210" cy="170" r="90" fill="#ffe6a6" opacity=".55"/>
  <g stroke="#334524" stroke-width="10" stroke-linecap="round" opacity=".62">
    <path d="M80 900 C120 650 130 470 105 230"/><path d="M210 900 C260 680 258 530 218 300"/><path d="M1020 900 C990 650 1010 488 1080 260"/>
    <path d="M1120 900 C1088 660 1105 520 1170 360"/><path d="M420 900 C405 650 432 505 520 310"/>
  </g>
  <g fill="#425b2e" opacity=".6">
    <path d="M0 820 C220 760 395 840 600 790 C790 745 965 762 1200 815 L1200 900 L0 900Z"/>
  </g>
  <path d="M480 418 C615 315 780 320 916 420 C770 410 655 444 540 520Z" fill="#f0f4ec"/>
  <path d="M526 460 C660 395 782 410 906 494 C778 485 672 520 560 582Z" fill="#ccd6cc"/>
  <path d="M484 506 C565 460 650 455 732 495 C650 520 592 560 532 642Z" fill="#e9eee7"/>
  <path d="M486 506 C448 550 440 620 475 690 C500 620 530 580 578 544Z" fill="#d5ded4"/>
  <path d="M714 456 C746 412 760 350 740 288 C705 350 682 398 650 434Z" fill="#e8ede8"/>
  <circle cx="880" cy="436" r="13" fill="#1f241d"/>
  <path d="M910 432 995 405 916 460Z" fill="#d8a02f"/>
</svg>
